<svg xmlns:dc="http://purl.org/dc/elements/1.1/" xmlns:cc="http://creativecommons.org/ns#" xmlns:rdf="http://www.w3.org/1999/02/22-rdf-syntax-ns#" xmlns="http://www.w3.org/2000/svg" width="130" height="50" viewBox="0 0 130 50" fill="none" version="1.1" id="svg280" xmlns:xlink="http://www.w3.org/1999/xlink" preserveAspectRatio="xMinYMin meet"><rect id="svgEditorBackground" x="0" y="0" width="130" height="50" style="fill:none;stroke:none;"/>
  <metadata id="metadata284">
    <rdf:RDF>
      <cc:Work rdf:about="">
        <dc:format>image/svg+xml</dc:format>
        <dc:type rdf:resource="http://purl.org/dc/dcmitype/StillImage"/>
        <dc:title/>
      </cc:Work>
    </rdf:RDF>
  </metadata>
  <defs id="defs278">
    <filter id="filter0_d" x="0" y="0" width="130" height="50" filterUnits="userSpaceOnUse" color-interpolation-filters="sRGB">
      <feFlood flood-opacity="0" result="BackgroundImageFix" id="feFlood263"/>
      <feColorMatrix in="SourceAlpha" type="matrix" values="0 0 0 0 0 0 0 0 0 0 0 0 0 0 0 0 0 0 127 0" id="feColorMatrix265"/>
      <feOffset dy="10" id="feOffset267"/>
      <feGaussianBlur stdDeviation="5" id="feGaussianBlur269"/>
      <feColorMatrix type="matrix" values="0 0 0 0 0 0 0 0 0 0 0 0 0 0 0 0 0 0 0.05 0" id="feColorMatrix271"/>
      <feBlend mode="normal" in2="BackgroundImageFix" result="effect1_dropShadow" id="feBlend273"/>
      <feBlend mode="normal" in="SourceGraphic" in2="effect1_dropShadow" result="shape" id="feBlend275"/>
    </filter>
    <filter id="filter0_d-1-7" x="0" y="0" width="130" height="50" filterUnits="userSpaceOnUse" color-interpolation-filters="sRGB">
      <feFlood flood-opacity="0" result="BackgroundImageFix" id="feFlood164-9"/>
      <feColorMatrix in="SourceAlpha" type="matrix" values="0 0 0 0 0 0 0 0 0 0 0 0 0 0 0 0 0 0 127 0" id="feColorMatrix166-1"/>
      <feOffset dy="10" id="feOffset168-1"/>
      <feGaussianBlur stdDeviation="5" id="feGaussianBlur170-6"/>
      <feColorMatrix type="matrix" values="0 0 0 0 0 0 0 0 0 0 0 0 0 0 0 0 0 0 0.05 0" id="feColorMatrix172-1"/>
      <feBlend mode="normal" in2="BackgroundImageFix" result="effect1_dropShadow" id="feBlend174-1"/>
      <feBlend mode="normal" in="SourceGraphic" in2="effect1_dropShadow" result="shape" id="feBlend176-2"/>
    </filter>
  </defs>
  <g id="g331">
    <g filter="url(#filter0_d)" id="g259"/>
    <g id="g1044" transform="translate(10,30.003906)">
      <path id="path119" d="M 0 0 L 11.765455409884453 3.9215804040431976 V 0 z" style="fill:#98bceb;fill-opacity:1"/>
      <g style="fill:none" id="g198" transform="translate(-10,-30)">
        <g filter="url(#filter0_d)" id="g160" style="filter:url(#filter0_d-1-7)">
          <path d="M 107.795,15.2964 117.5,0 H 10 v 30 l 110,-0.1186 z" fill="#5499f0" id="path158"/>
        </g>
        <path d="M 34.1,18 H 32.288 V 14.304 H 28.892 V 18 H 27.08 V 9.432 h 1.812 v 3.36 h 3.396 V 9.432 H 34.1 Z m 10.5318,-4.296 c 0,0.888 -0.148,1.664 -0.444,2.328 -0.288,0.656 -0.736,1.168 -1.344,1.536 -0.6,0.368 -1.364,0.552 -2.292,0.552 -0.928,0 -1.696,-0.184 -2.304,-0.552 -0.6,-0.368 -1.048,-0.884 -1.344,-1.548 -0.288,-0.664 -0.432,-1.44 -0.432,-2.328 0,-0.888 0.144,-1.66 0.432,-2.316 0.296,-0.656 0.744,-1.164 1.344,-1.524 0.608,-0.368 1.38,-0.552 2.316,-0.552 0.928,0 1.692,0.184 2.292,0.552 0.6,0.36 1.044,0.872 1.332,1.536 0.296,0.656 0.444,1.428 0.444,2.316 z m -6.252,0 c 0,0.896 0.172,1.604 0.516,2.124 0.344,0.512 0.896,0.768 1.656,0.768 0.776,0 1.332,-0.256 1.668,-0.768 0.336,-0.52 0.504,-1.228 0.504,-2.124 0,-0.896 -0.168,-1.6 -0.504,-2.112 -0.336,-0.52 -0.888,-0.78 -1.656,-0.78 -0.768,0 -1.324,0.26 -1.668,0.78 -0.344,0.512 -0.516,1.216 -0.516,2.112 z m 8.6268,-4.272 h 2.664 c 1.136,0 1.996,0.16 2.58,0.48 0.592,0.32 0.888,0.884 0.888,1.692 0,0.488 -0.116,0.9 -0.348,1.236 -0.224,0.336 -0.548,0.54 -0.972,0.612 v 0.06 c 0.28,0.064 0.536,0.168 0.768,0.312 0.24,0.136 0.428,0.34 0.564,0.612 0.136,0.272 0.204,0.632 0.204,1.08 0,0.776 -0.284,1.384 -0.852,1.824 -0.56,0.44 -1.324,0.66 -2.292,0.66 h -3.204 z m 1.812,3.396 h 1.056 c 0.528,0 0.892,-0.08 1.092,-0.24 0.208,-0.168 0.312,-0.416 0.312,-0.744 0,-0.328 -0.12,-0.564 -0.36,-0.708 -0.24,-0.144 -0.62,-0.216 -1.14,-0.216 h -0.96 z m 0,1.44 V 16.5 h 1.188 c 0.544,0 0.924,-0.104 1.14,-0.312 0.216,-0.216 0.324,-0.5 0.324,-0.852 0,-0.32 -0.112,-0.576 -0.336,-0.768 -0.216,-0.2 -0.612,-0.3 -1.188,-0.3 z m 6.8505,-4.836 h 1.632 v 4.14 c 0,0.2 -0.004,0.424 -0.012,0.672 -0.008,0.248 -0.016,0.492 -0.024,0.732 -0.008,0.232 -0.016,0.436 -0.024,0.612 -0.008,0.168 -0.016,0.284 -0.024,0.348 h 0.036 l 3.96,-6.504 h 2.172 V 18 h -1.62 v -4.116 c 0,-0.216 0.004,-0.452 0.012,-0.708 0.008,-0.264 0.016,-0.516 0.024,-0.756 0.016,-0.24 0.028,-0.448 0.036,-0.624 0.016,-0.184 0.028,-0.304 0.036,-0.36 h -0.048 L 57.8531,18 h -2.184 z M 73.168,18 H 71.356 V 14.304 H 67.96 V 18 H 66.148 V 9.432 h 1.812 v 3.36 h 3.396 v -3.36 h 1.812 z m 9.7398,0 h -2.064 l -3.108,-4.344 V 18 h -1.812 V 9.432 h 1.812 v 4.152 l 3.072,-4.152 h 1.932 l -3.12,4.116 z m 6.9224,0 -0.624,-2.04 h -3.12 L 85.4622,18 h -1.956 l 3.024,-8.604 h 2.22 L 91.7862,18 Z m -1.056,-3.564 -0.624,-1.992 c -0.04,-0.136 -0.092,-0.308 -0.156,-0.516 -0.064,-0.208 -0.128,-0.42 -0.192,-0.636 -0.064,-0.216 -0.116,-0.404 -0.156,-0.564 -0.04,0.16 -0.096,0.36 -0.168,0.6 -0.064,0.232 -0.128,0.456 -0.192,0.672 -0.056,0.208 -0.1,0.356 -0.132,0.444 l -0.612,1.992 z" fill="#ffffff" id="path162"/>
      </g>
    </g>
  </g>
</svg>